<?xml version="1.0" standalone="no"?>
<!DOCTYPE svg PUBLIC "-//W3C//DTD SVG 20010904//EN"
 "http://www.w3.org/TR/2001/REC-SVG-20010904/DTD/svg10.dtd">
<svg version="1.0" xmlns="http://www.w3.org/2000/svg"
 width="1000.000000pt" height="1000.000000pt" viewBox="0 0 1000.000000 1000.000000"
 preserveAspectRatio="xMidYMid meet">
<metadata>
Created by potrace 1.11, written by Peter Selinger 2001-2013
</metadata>
<g transform="translate(0.000000,1000.000000) scale(0.100000,-0.100000)"
fill="#000000" stroke="none">
<path d="M50 5000 l0 -4950 4950 0 4950 0 0 4950 0 4950 -4950 0 -4950 0 0
-4950z m8760 3390 l0 -540 -3330 0 -3330 0 0 -2805 0 -2805 3330 0 3330 0 0
-615 0 -615 -3885 0 -3885 0 0 3960 0 3960 3885 0 3885 0 0 -540z m-4490
-3425 l0 -2045 -560 0 -560 0 0 2045 0 2045 560 0 560 0 0 -2045z m4490 -10
l0 -2035 -565 0 -565 0 0 645 0 645 -1155 0 -1155 0 0 1390 0 1390 1720 0
1720 0 0 -2035z"/>
<path d="M6360 5580 l0 -560 660 0 660 0 0 560 0 560 -660 0 -660 0 0 -560z"/>
</g>
</svg>
